<svg xmlns="http://www.w3.org/2000/svg" viewBox="0 0 851.78 394.07" width="212.94pt" height="98.52pt" role="img"><title>BW</title><g transform="translate(0 0)" fill="#a3be42" fill-rule="evenodd"><path d="M340.95 234.89 C340.95 241.4 340.33 246.45 339.08 249.92 C338.08 252.71 336.51 254.58 334.14 255.82 C331.23 257.35 326.99 258.33 321.53 258.76 C315.45 259.23 307.61 259.48 298.26 259.48 L179.18 259.48 L179.18 210.3 L292.82 210.3 C300.13 210.3 307.05 210.51 313.39 210.92 C319.31 211.3 324.55 212.31 328.94 213.93 C332.77 215.35 335.65 217.56 337.76 220.71 C339.88 223.88 340.95 228.65 340.95 234.89 Z M179.18 182.46 L179.18 143.33 L307.16 143.33 C315.06 143.33 321.3 143.75 325.68 144.59 C330.37 145.49 331.66 147.6 332.07 148.29 C333.07 149.93 334.25 153.45 334.25 160.91 C334.25 170.32 332.29 174.51 330.63 176.37 C328.24 179.06 324.25 180.74 318.78 181.34 C312.12 182.09 303.39 182.46 292.82 182.46 L179.18 182.46 Z M351.52 194.13 C353.93 192.35 356.04 190.19 357.83 187.65 C362.88 180.52 365.44 171.52 365.44 160.91 C365.44 149.33 363.26 140.09 358.95 133.45 C354.49 126.58 347.64 121.75 338.59 119.11 C330.33 116.71 319.76 115.49 307.16 115.49 L147.99 115.49 L147.99 287.31 L298.26 287.31 C311.67 287.31 323.05 286.63 332.1 285.27 C341.68 283.83 349.48 281.17 355.3 277.36 C361.47 273.31 365.91 267.57 368.52 260.31 C370.92 253.6 372.14 245.05 372.14 234.89 C372.14 222.73 369.15 212.4 363.25 204.19 C360.23 199.98 356.31 196.63 351.52 194.13 Z"/><path d="M693.42 115.49 L634.37 251.06 L572.75 115.49 L542.16 115.49 L480.29 251.63 L414.66 115.49 L379.13 115.49 L463.59 287.32 L497.42 287.32 L557.46 154.69 L617.5 287.32 L651.46 287.32 L728.75 115.49 L693.42 115.49 Z"/><path d="M197.03 25.89 C102.66 25.89 25.89 102.66 25.89 197.04 C25.89 291.4 102.66 368.18 197.03 368.18 L654.74 368.18 C749.11 368.18 825.88 291.4 825.88 197.04 C825.88 102.66 749.11 25.89 654.74 25.89 L197.03 25.89 Z M654.74 394.07 L197.03 394.07 C88.39 394.07 0 305.68 0 197.04 C0 88.39 88.39 0 197.03 0 L654.74 0 C763.39 0 851.78 88.39 851.78 197.04 C851.78 305.68 763.39 394.07 654.74 394.07 Z"/></g></svg>
